<svg width="200" height="28" viewBox="0 0 200 28" fill="none" xmlns="http://www.w3.org/2000/svg">
<g clip-path="url(#clip0_51_233)">
<path d="M7.29798 0C5.2931 0 3.80985 1.75549 3.87622 3.65922C3.93983 5.48793 3.85714 7.85681 3.2609 9.78833C2.66288 11.7258 1.65186 12.9505 0 13.1078V14.8922C1.65179 15.0495 2.66288 16.2742 3.2609 18.2117C3.85714 20.1432 3.93983 22.5121 3.87615 24.3409C3.80985 26.2445 5.2931 28 7.29798 28H27.8418C29.8467 28 31.3299 26.2445 31.2636 24.3409C31.2 22.5121 31.2827 20.1432 31.8788 18.2117C32.4769 16.2742 33.4855 15.0495 35.1373 14.8922V13.1078C33.4855 12.9505 32.4769 11.7258 31.8788 9.78833C31.2827 7.85681 31.2 5.48793 31.2636 3.65922C31.3299 1.75549 29.8467 0 27.8418 0H7.29798ZM23.5324 17.2325C23.5324 19.8539 21.5765 21.4431 18.3306 21.4431H12.3461C12.3097 21.4431 12.2748 21.4287 12.2491 21.4029C12.2234 21.3772 12.2089 21.3423 12.2089 21.3059V6.68823C12.2089 6.65182 12.2234 6.61691 12.2491 6.59117C12.2748 6.56543 12.3097 6.55097 12.3461 6.55097H18.2989C21.0055 6.55097 22.7818 8.01644 22.7818 10.2663C22.7818 11.8453 21.587 13.2592 20.0645 13.5068V13.5894C22.1368 13.8165 23.5324 15.251 23.5324 17.2325ZM17.7279 8.4396H14.5772V12.8876H17.231C19.2821 12.8876 20.4134 12.062 20.4134 10.5862C20.4134 9.20328 19.4407 8.4396 17.7279 8.4396ZM14.5772 14.6524V19.5546H17.8442C19.9799 19.5546 21.1112 18.698 21.1112 17.088C21.1112 15.478 19.9482 14.6524 17.7068 14.6524H14.5772Z" fill="white"/>
</g>
<path d="M48.591 5.27273H52.9525L57.5591 16.5114H57.7551L62.3616 5.27273H66.7231V22H63.2927V11.1126H63.1539L58.8251 21.9183H56.4891L52.1603 11.0717H52.0214V22H48.591V5.27273ZM73.149 22.2369C72.3486 22.2369 71.6353 22.098 71.0091 21.8203C70.3829 21.5372 69.8874 21.1206 69.5226 20.5707C69.1632 20.0153 68.9835 19.3237 68.9835 18.4961C68.9835 17.7991 69.1115 17.2138 69.3674 16.7401C69.6233 16.2663 69.9718 15.8852 70.4129 15.5966C70.8539 15.308 71.3549 15.0902 71.9157 14.9432C72.482 14.7962 73.0755 14.6927 73.6962 14.6328C74.4259 14.5566 75.014 14.4858 75.4604 14.4205C75.9069 14.3497 76.2309 14.2462 76.4324 14.1101C76.6339 13.974 76.7346 13.7725 76.7346 13.5057V13.4567C76.7346 12.9394 76.5712 12.5392 76.2445 12.256C75.9233 11.9729 75.4659 11.8313 74.8724 11.8313C74.2462 11.8313 73.748 11.9702 73.3777 12.2479C73.0074 12.5201 72.7624 12.8632 72.6426 13.277L69.4246 13.0156C69.5879 12.2533 69.9092 11.5945 70.3884 11.0391C70.8675 10.4782 71.4855 10.0481 72.2424 9.74858C73.0047 9.44366 73.8868 9.29119 74.8887 9.29119C75.5857 9.29119 76.2527 9.37287 76.8898 9.53622C77.5323 9.69957 78.1013 9.95277 78.5968 10.2958C79.0978 10.6388 79.4925 11.0799 79.7811 11.619C80.0697 12.1526 80.214 12.7924 80.214 13.5384V22H76.9143V20.2603H76.8163C76.6148 20.6523 76.3453 20.9981 76.0077 21.2976C75.6701 21.5916 75.2644 21.823 74.7907 21.9918C74.317 22.1552 73.7698 22.2369 73.149 22.2369ZM74.1455 19.8356C74.6573 19.8356 75.1092 19.7348 75.5013 19.5334C75.8933 19.3265 76.201 19.0488 76.4242 18.7003C76.6475 18.3518 76.7591 17.957 76.7591 17.516V16.1847C76.6502 16.2554 76.5005 16.3208 76.3099 16.3807C76.1247 16.4351 75.9151 16.4869 75.681 16.5359C75.4468 16.5794 75.2127 16.6203 74.9786 16.6584C74.7444 16.6911 74.5321 16.721 74.3415 16.7482C73.9331 16.8081 73.5765 16.9034 73.2715 17.0341C72.9666 17.1648 72.7297 17.3417 72.5609 17.565C72.3921 17.7828 72.3078 18.055 72.3078 18.3817C72.3078 18.8555 72.4793 19.2176 72.8223 19.468C73.1708 19.7131 73.6118 19.8356 74.1455 19.8356ZM93.3516 13.032L90.1662 13.228C90.1118 12.9557 89.9947 12.7107 89.815 12.4929C89.6353 12.2696 89.3985 12.0927 89.1044 11.962C88.8159 11.8259 88.4701 11.7578 88.0672 11.7578C87.5281 11.7578 87.0734 11.8722 86.7032 12.1009C86.3329 12.3241 86.1478 12.6236 86.1478 12.9993C86.1478 13.2988 86.2676 13.552 86.5071 13.7589C86.7467 13.9658 87.1578 14.1319 87.7405 14.2571L90.0111 14.7145C91.2308 14.965 92.1401 15.3679 92.739 15.9233C93.338 16.4787 93.6375 17.2083 93.6375 18.1122C93.6375 18.9344 93.3952 19.6559 92.9106 20.2766C92.4314 20.8974 91.7725 21.382 90.934 21.7305C90.1009 22.0735 89.1398 22.245 88.0508 22.245C86.3901 22.245 85.0669 21.8993 84.0814 21.2077C83.1013 20.5108 82.5268 19.5633 82.358 18.3654L85.7802 18.1857C85.8837 18.6921 86.1342 19.0787 86.5316 19.3455C86.9291 19.6069 87.4383 19.7376 88.059 19.7376C88.6688 19.7376 89.1589 19.6205 89.5292 19.3864C89.9049 19.1468 90.0955 18.8391 90.1009 18.4634C90.0955 18.1476 89.962 17.889 89.7007 17.6875C89.4393 17.4806 89.0364 17.3227 88.4919 17.2138L86.3193 16.7809C85.0941 16.5359 84.1821 16.1112 83.5831 15.5067C82.9896 14.9023 82.6929 14.1319 82.6929 13.1953C82.6929 12.3894 82.9107 11.6952 83.3463 11.1126C83.7873 10.5299 84.4053 10.0807 85.2003 9.76491C86.0008 9.4491 86.9373 9.29119 88.01 9.29119C89.5945 9.29119 90.8414 9.62607 91.7508 10.2958C92.6655 10.9656 93.1991 11.8776 93.3516 13.032ZM106.267 13.032L103.081 13.228C103.027 12.9557 102.91 12.7107 102.73 12.4929C102.55 12.2696 102.314 12.0927 102.019 11.962C101.731 11.8259 101.385 11.7578 100.982 11.7578C100.443 11.7578 99.9885 11.8722 99.6182 12.1009C99.2479 12.3241 99.0628 12.6236 99.0628 12.9993C99.0628 13.2988 99.1826 13.552 99.4222 13.7589C99.6618 13.9658 100.073 14.1319 100.655 14.2571L102.926 14.7145C104.146 14.965 105.055 15.3679 105.654 15.9233C106.253 16.4787 106.553 17.2083 106.553 18.1122C106.553 18.9344 106.31 19.6559 105.826 20.2766C105.346 20.8974 104.688 21.382 103.849 21.7305C103.016 22.0735 102.055 22.245 100.966 22.245C99.3051 22.245 97.982 21.8993 96.9964 21.2077C96.0163 20.5108 95.4418 19.5633 95.273 18.3654L98.6953 18.1857C98.7987 18.6921 99.0492 19.0787 99.4467 19.3455C99.8442 19.6069 100.353 19.7376 100.974 19.7376C101.584 19.7376 102.074 19.6205 102.444 19.3864C102.82 19.1468 103.01 18.8391 103.016 18.4634C103.01 18.1476 102.877 17.889 102.616 17.6875C102.354 17.4806 101.951 17.3227 101.407 17.2138L99.2343 16.7809C98.0092 16.5359 97.0971 16.1112 96.4982 15.5067C95.9047 14.9023 95.6079 14.1319 95.6079 13.1953C95.6079 12.3894 95.8257 11.6952 96.2613 11.1126C96.7024 10.5299 97.3204 10.0807 98.1154 9.76491C98.9158 9.4491 99.8523 9.29119 100.925 9.29119C102.51 9.29119 103.756 9.62607 104.666 10.2958C105.581 10.9656 106.114 11.8776 106.267 13.032ZM112.321 22.2369C111.52 22.2369 110.807 22.098 110.181 21.8203C109.555 21.5372 109.059 21.1206 108.694 20.5707C108.335 20.0153 108.155 19.3237 108.155 18.4961C108.155 17.7991 108.283 17.2138 108.539 16.7401C108.795 16.2663 109.144 15.8852 109.585 15.5966C110.026 15.308 110.527 15.0902 111.088 14.9432C111.654 14.7962 112.247 14.6927 112.868 14.6328C113.598 14.5566 114.186 14.4858 114.632 14.4205C115.079 14.3497 115.403 14.2462 115.604 14.1101C115.806 13.974 115.906 13.7725 115.906 13.5057V13.4567C115.906 12.9394 115.743 12.5392 115.416 12.256C115.095 11.9729 114.638 11.8313 114.044 11.8313C113.418 11.8313 112.92 11.9702 112.55 12.2479C112.179 12.5201 111.934 12.8632 111.814 13.277L108.596 13.0156C108.76 12.2533 109.081 11.5945 109.56 11.0391C110.039 10.4782 110.657 10.0481 111.414 9.74858C112.177 9.44366 113.059 9.29119 114.061 9.29119C114.758 9.29119 115.425 9.37287 116.062 9.53622C116.704 9.69957 117.273 9.95277 117.769 10.2958C118.27 10.6388 118.664 11.0799 118.953 11.619C119.242 12.1526 119.386 12.7924 119.386 13.5384V22H116.086V20.2603H115.988C115.787 20.6523 115.517 20.9981 115.18 21.2976C114.842 21.5916 114.436 21.823 113.963 21.9918C113.489 22.1552 112.942 22.2369 112.321 22.2369ZM113.317 19.8356C113.829 19.8356 114.281 19.7348 114.673 19.5334C115.065 19.3265 115.373 19.0488 115.596 18.7003C115.819 18.3518 115.931 17.957 115.931 17.516V16.1847C115.822 16.2554 115.672 16.3208 115.482 16.3807C115.297 16.4351 115.087 16.4869 114.853 16.5359C114.619 16.5794 114.385 16.6203 114.15 16.6584C113.916 16.6911 113.704 16.721 113.513 16.7482C113.105 16.8081 112.748 16.9034 112.443 17.0341C112.138 17.1648 111.902 17.3417 111.733 17.565C111.564 17.7828 111.48 18.055 111.48 18.3817C111.48 18.8555 111.651 19.2176 111.994 19.468C112.343 19.7131 112.784 19.8356 113.317 19.8356ZM127.737 26.9659C126.61 26.9659 125.644 26.8107 124.838 26.5004C124.037 26.1954 123.4 25.7789 122.927 25.2507C122.453 24.7225 122.145 24.129 122.004 23.4702L125.222 23.0373C125.32 23.2878 125.475 23.5219 125.687 23.7397C125.9 23.9575 126.18 24.1317 126.528 24.2624C126.882 24.3986 127.313 24.4666 127.819 24.4666C128.576 24.4666 129.199 24.2815 129.689 23.9112C130.185 23.5464 130.433 22.9338 130.433 22.0735V19.7784H130.286C130.133 20.1269 129.904 20.4563 129.599 20.7667C129.295 21.0771 128.903 21.3303 128.423 21.5263C127.944 21.7223 127.372 21.8203 126.708 21.8203C125.766 21.8203 124.909 21.6025 124.135 21.1669C123.368 20.7259 122.755 20.0534 122.298 19.1495C121.846 18.2402 121.62 17.0913 121.62 15.7028C121.62 14.2816 121.851 13.0946 122.314 12.1417C122.777 11.1888 123.392 10.4755 124.16 10.0018C124.933 9.52805 125.78 9.29119 126.7 9.29119C127.402 9.29119 127.99 9.41098 128.464 9.65057C128.938 9.88471 129.319 10.1787 129.608 10.5327C129.902 10.8812 130.128 11.2242 130.286 11.5618H130.416V9.45455H133.871V22.1225C133.871 23.1897 133.61 24.0827 133.087 24.8015C132.564 25.5202 131.84 26.0593 130.914 26.4187C129.994 26.7835 128.935 26.9659 127.737 26.9659ZM127.811 19.2067C128.372 19.2067 128.845 19.0678 129.232 18.7901C129.624 18.507 129.923 18.104 130.13 17.5813C130.343 17.0531 130.449 16.4215 130.449 15.6864C130.449 14.9513 130.345 14.3143 130.139 13.7752C129.932 13.2307 129.632 12.8087 129.24 12.5092C128.848 12.2098 128.372 12.06 127.811 12.06C127.239 12.06 126.757 12.2152 126.365 12.5256C125.973 12.8305 125.676 13.2552 125.475 13.7997C125.273 14.3442 125.173 14.9731 125.173 15.6864C125.173 16.4106 125.273 17.0368 125.475 17.565C125.682 18.0877 125.979 18.4934 126.365 18.782C126.757 19.0651 127.239 19.2067 127.811 19.2067ZM142.357 22.245C141.067 22.245 139.956 21.9837 139.025 21.4609C138.099 20.9328 137.386 20.1868 136.885 19.223C136.384 18.2538 136.134 17.1076 136.134 15.7844C136.134 14.494 136.384 13.3614 136.885 12.3867C137.386 11.4121 138.091 10.6525 139 10.108C139.915 9.56345 140.988 9.29119 142.218 9.29119C143.046 9.29119 143.817 9.4246 144.53 9.69141C145.249 9.95277 145.875 10.3475 146.408 10.8757C146.947 11.4039 147.367 12.0682 147.666 12.8686C147.966 13.6636 148.115 14.5947 148.115 15.6619V16.6175H137.522V14.4613H144.84C144.84 13.9603 144.731 13.5166 144.514 13.13C144.296 12.7434 143.994 12.4412 143.607 12.2234C143.226 12.0001 142.782 11.8885 142.276 11.8885C141.747 11.8885 141.279 12.011 140.871 12.256C140.468 12.4956 140.152 12.8196 139.923 13.228C139.695 13.6309 139.578 14.0801 139.572 14.5756V16.6257C139.572 17.2464 139.686 17.7828 139.915 18.2347C140.149 18.6867 140.479 19.0352 140.903 19.2802C141.328 19.5252 141.832 19.6477 142.414 19.6477C142.801 19.6477 143.155 19.5933 143.476 19.4844C143.798 19.3755 144.072 19.2121 144.301 18.9943C144.53 18.7765 144.704 18.5097 144.824 18.1939L148.042 18.4062C147.879 19.1795 147.544 19.8546 147.037 20.4318C146.536 21.0036 145.888 21.45 145.093 21.7713C144.304 22.0871 143.392 22.245 142.357 22.245ZM153.767 5.27273L157.141 10.9737H157.271L160.661 5.27273H164.655L159.55 13.6364L164.769 22H160.702L157.271 16.2908H157.141L153.71 22H149.659L154.895 13.6364L149.757 5.27273H153.767ZM170.209 5.27273L173.582 10.9737H173.713L177.102 5.27273H181.096L175.992 13.6364L181.211 22H177.143L173.713 16.2908H173.582L170.152 22H166.101L171.336 13.6364L166.199 5.27273H170.209ZM186.65 5.27273L190.023 10.9737H190.154L193.544 5.27273H197.538L192.433 13.6364L197.652 22H193.585L190.154 16.2908H190.023L186.593 22H182.542L187.777 13.6364L182.64 5.27273H186.65Z" fill="white"/>
<defs>
<clipPath id="clip0_51_233">
<rect width="35.1373" height="28" fill="white"/>
</clipPath>
</defs>
</svg>
